<svg width="36" height="36" viewBox="0 0 36 36" fill="none" xmlns="http://www.w3.org/2000/svg">
<g clip-path="url(#clip0_1884_220)">
<rect width="36" height="36" rx="5" fill="#2182D9"/>
<path d="M23.7075 18.8887C22.5909 17.5847 16.7534 16.525 14.3114 20.4592C14.6968 19.2813 14.6821 15.3408 16.5547 13.5003C17.5026 12.5686 18.2135 12.0886 19.0851 11.1269C19.3445 11.7392 19.9028 11.8437 20.5368 11.6095C20.6845 11.9878 21.0879 11.9661 21.4733 11.8401C21.5634 12.42 22.5323 12.067 23.1195 11.8653C23.4112 12.456 23.9335 12.6973 24.3442 12.6181C24.762 12.5425 25.025 12.1679 24.9998 11.696C24.9998 11.6636 24.9925 11.6347 24.9817 11.6095L24.5675 10.5757C24.6936 9.261 24.2901 8.07233 23.3644 7.04573C23.3211 6.9989 23.2672 6.9701 23.2059 6.95928C19.4418 6.36854 17.014 6.79358 15.7749 8.25604L15.1096 9.1533C12.2641 10.8132 2.00017 24 5.2997 26.5359C8.75261 30.4761 18.5642 29.9671 23.7039 28.272C24.0677 28.4161 25.3536 28.8844 26.636 28.8844C27.1546 28.8844 27.6697 28.8052 28.1272 28.6034C35 26.8889 34.5 16 23.7075 18.8887ZM27.2447 26.7412C27.1933 26.8655 27.0526 26.9424 26.8917 26.8889C26.7512 26.8312 26.4572 26.6724 26.5148 26.5355C27.988 22.9659 24.4135 21.1519 24.2586 21.0691C24.1297 20.9788 24.2082 20.7077 24.2766 20.5744C24.3451 20.4411 24.5071 20.3907 24.6404 20.4592C24.6801 20.4808 28.9089 22.7105 27.2447 26.7412Z" fill="white"/>
</g>
<defs>
<clipPath id="clip0_1884_220">
<rect width="36" height="36" fill="white"/>
</clipPath>
</defs>
</svg>
