<svg width="20" height="20" viewBox="0 0 20 20" fill="none" xmlns="http://www.w3.org/2000/svg">
<rect width="20" height="20" rx="5" fill="#5F1FB2"/>
<path d="M18 12.0515C18 13.7268 15.9167 15.402 14.25 14.9832C13.6632 15.8208 7.25951 16.5615 6.33333 15.402C5.6143 15.6871 4.16879 15.6302 3.60462 15.0801C3.17825 14.6642 2.9651 13.8637 3.00466 12.8211C3.0991 10.4083 5.87639 7.26631 7.21939 5.27793C7.38993 5.02439 7.20112 4.67777 7.21939 4.41854C7.26507 3.79468 7.47834 3.13094 7.70367 2.72358C8.01127 2.17093 8.4558 2 8.78774 2C9.0953 2 9.43336 2.09116 9.82316 2.28202C10.9224 2.86601 10.9224 3.57819 10.7033 4.14507C10.5053 4.50685 10.0485 5.01107 9.57037 5.39564C9.24455 5.65772 9.02041 5.66065 8.83333 6.18813C8.22715 7.89735 6.84482 9.62937 6.8108 11.3227C6.80773 11.4224 6.93292 11.628 6.97251 11.6651C7.26193 11.7162 7.44763 11.6286 7.57249 11.5545C8.35661 10.8914 9.2696 10.0752 10.3167 10.0491C13.9418 9.9589 14.5335 12.702 15.1602 12.609C16.1602 12.109 15.3782 10.9694 14.56 10.285C13.5153 9.66952 13.3805 9.61497 12.0754 9.19897C12.7569 8.72238 14.3173 8.65727 14.9652 8.65727C16.9386 8.65727 18 9.95745 18 12.0515Z" fill="white"/>
</svg>
