<svg width="158" height="40" viewBox="0 0 158 40" fill="none" xmlns="http://www.w3.org/2000/svg">
<g clip-path="url(#clip0_1803_189)">
<path d="M3.46875 7.57812H16.5156C18.1094 7.57812 19.4948 7.75 20.6719 8.09375C21.8594 8.42708 22.8438 8.89062 23.625 9.48438C24.4062 10.0781 24.9844 10.7865 25.3594 11.6094C25.7448 12.4219 25.9375 13.3021 25.9375 14.25C25.9375 15.8021 25.4479 17.1615 24.4688 18.3281C25.5938 18.9948 26.4323 19.8594 26.9844 20.9219C27.5365 21.9844 27.8125 23.1927 27.8125 24.5469C27.8125 25.6823 27.6198 26.7083 27.2344 27.625C26.8594 28.5417 26.2812 29.3281 25.5 29.9844C24.7292 30.6302 23.75 31.1302 22.5625 31.4844C21.3854 31.8281 19.9948 32 18.3906 32H3.46875V7.57812ZM18.4219 16.9531C18.849 16.9531 19.2656 16.9688 19.6719 17C20.3698 16.3333 20.7188 15.5729 20.7188 14.7188C20.7188 13.8333 20.3698 13.151 19.6719 12.6719C18.9844 12.1823 17.974 11.9375 16.6406 11.9375H8.42188V16.9531H18.4219ZM18.5156 27.6875C19.849 27.6875 20.8594 27.401 21.5469 26.8281C22.2448 26.2552 22.5938 25.4479 22.5938 24.4062C22.5938 23.3646 22.2448 22.5521 21.5469 21.9688C20.8594 21.3854 19.849 21.0938 18.5156 21.0938H8.42188V27.6875H18.5156ZM32.2188 7.57812H37.2031V32H32.2188V7.57812ZM42.0469 19.6406C42.0469 17.901 42.375 16.2812 43.0312 14.7812C43.6875 13.2708 44.6354 11.9635 45.875 10.8594C47.125 9.74479 48.6458 8.86979 50.4375 8.23438C52.2396 7.59896 54.276 7.28125 56.5469 7.28125C58.5365 7.28125 60.3594 7.48438 62.0156 7.89062C63.6823 8.28646 65.2292 8.89583 66.6562 9.71875L64.375 13.4688C63.9479 13.1875 63.4531 12.9375 62.8906 12.7188C62.3385 12.5 61.7448 12.3177 61.1094 12.1719C60.4844 12.0156 59.8333 11.8958 59.1562 11.8125C58.4896 11.7292 57.8281 11.6875 57.1719 11.6875C55.5885 11.6875 54.1771 11.8854 52.9375 12.2812C51.6979 12.6667 50.651 13.2135 49.7969 13.9219C48.9531 14.6198 48.3073 15.4583 47.8594 16.4375C47.4219 17.4062 47.2031 18.474 47.2031 19.6406C47.2031 20.849 47.4323 21.9583 47.8906 22.9688C48.349 23.9792 49.0104 24.8542 49.875 25.5938C50.75 26.3229 51.8125 26.8958 53.0625 27.3125C54.3229 27.7188 55.7448 27.9219 57.3281 27.9219C58.0469 27.9219 58.7604 27.8698 59.4688 27.7656C60.1771 27.6615 60.8594 27.5208 61.5156 27.3438C62.1823 27.1562 62.8229 26.9375 63.4375 26.6875C64.0521 26.4271 64.625 26.1458 65.1562 25.8438L67.4375 29.5938C66.1042 30.4479 64.5625 31.1198 62.8125 31.6094C61.0625 32.0885 59.2031 32.3281 57.2344 32.3281C54.724 32.3281 52.5208 32.0052 50.625 31.3594C48.7292 30.7031 47.1458 29.8073 45.875 28.6719C44.6042 27.526 43.6458 26.1823 43 24.6406C42.3646 23.0885 42.0469 21.4219 42.0469 19.6406ZM72.9062 7.57812H93.7031V11.9219H77.8594V16.7969H91.8906V20.875H77.8594V27.6719H94.0312V32H72.9062V7.57812ZM99.5312 7.57812H112.406C114.281 7.57812 115.906 7.78125 117.281 8.1875C118.656 8.59375 119.797 9.18229 120.703 9.95312C121.609 10.7135 122.281 11.6458 122.719 12.75C123.167 13.8542 123.391 15.099 123.391 16.4844C123.391 17.7865 123.172 18.9896 122.734 20.0938C122.297 21.1979 121.625 22.1562 120.719 22.9688C119.823 23.7708 118.688 24.401 117.312 24.8594C115.938 25.3073 114.312 25.5312 112.438 25.5312L104.484 25.5156V32H99.5312V7.57812ZM112.531 21.2344C113.469 21.2344 114.286 21.125 114.984 20.9062C115.693 20.6771 116.281 20.3594 116.75 19.9531C117.229 19.5365 117.583 19.0365 117.812 18.4531C118.052 17.8594 118.172 17.2031 118.172 16.4844C118.172 15.0365 117.698 13.9115 116.75 13.1094C115.812 12.2969 114.406 11.8906 112.531 11.8906H104.484V21.2344H112.531ZM129.953 24.7344C130.839 25.2344 131.734 25.6875 132.641 26.0938C133.557 26.4896 134.505 26.8281 135.484 27.1094C136.464 27.3802 137.49 27.5885 138.562 27.7344C139.646 27.8802 140.797 27.9531 142.016 27.9531C143.484 27.9531 144.734 27.8594 145.766 27.6719C146.797 27.474 147.635 27.2083 148.281 26.875C148.938 26.5312 149.411 26.125 149.703 25.6562C150.005 25.1875 150.156 24.6771 150.156 24.125C150.156 23.2396 149.786 22.5417 149.047 22.0312C148.307 21.5104 147.167 21.25 145.625 21.25C144.948 21.25 144.234 21.2969 143.484 21.3906C142.734 21.474 141.974 21.5677 141.203 21.6719C140.443 21.776 139.688 21.875 138.938 21.9688C138.198 22.0521 137.5 22.0938 136.844 22.0938C135.75 22.0938 134.698 21.9531 133.688 21.6719C132.688 21.3906 131.797 20.9688 131.016 20.4062C130.245 19.8438 129.63 19.1406 129.172 18.2969C128.714 17.4531 128.484 16.4688 128.484 15.3438C128.484 14.6771 128.573 14.0156 128.75 13.3594C128.938 12.7031 129.229 12.0781 129.625 11.4844C130.031 10.8802 130.552 10.3229 131.188 9.8125C131.823 9.29167 132.589 8.84375 133.484 8.46875C134.391 8.09375 135.432 7.80208 136.609 7.59375C137.797 7.375 139.146 7.26562 140.656 7.26562C141.75 7.26562 142.849 7.32812 143.953 7.45312C145.057 7.56771 146.13 7.73438 147.172 7.95312C148.224 8.17188 149.234 8.4375 150.203 8.75C151.172 9.05208 152.073 9.39062 152.906 9.76562L150.734 13.7656C150.047 13.4635 149.307 13.1875 148.516 12.9375C147.724 12.6771 146.896 12.4531 146.031 12.2656C145.167 12.0781 144.271 11.9323 143.344 11.8281C142.427 11.7135 141.49 11.6562 140.531 11.6562C139.167 11.6562 138.042 11.7552 137.156 11.9531C136.281 12.151 135.583 12.4062 135.062 12.7188C134.542 13.0208 134.177 13.3646 133.969 13.75C133.771 14.125 133.672 14.5 133.672 14.875C133.672 15.6042 134 16.2031 134.656 16.6719C135.312 17.1302 136.312 17.3594 137.656 17.3594C138.198 17.3594 138.818 17.3229 139.516 17.25C140.224 17.1667 140.964 17.0781 141.734 16.9844C142.516 16.8906 143.307 16.8073 144.109 16.7344C144.922 16.651 145.708 16.6094 146.469 16.6094C147.906 16.6094 149.177 16.7708 150.281 17.0938C151.396 17.4167 152.328 17.8802 153.078 18.4844C153.828 19.0781 154.396 19.8021 154.781 20.6562C155.167 21.5 155.359 22.4479 155.359 23.5C155.359 24.9062 155.031 26.1615 154.375 27.2656C153.729 28.3594 152.802 29.2865 151.594 30.0469C150.396 30.7969 148.948 31.3698 147.25 31.7656C145.552 32.151 143.661 32.3438 141.578 32.3438C140.203 32.3438 138.859 32.2552 137.547 32.0781C136.234 31.9115 134.974 31.6719 133.766 31.3594C132.568 31.0365 131.422 30.6562 130.328 30.2188C129.245 29.7708 128.24 29.2812 127.312 28.75L129.953 24.7344Z" fill="#5A14B4"/>
</g>
<defs>
<clipPath id="clip0_1803_189">
<rect width="158" height="40" fill="white"/>
</clipPath>
</defs>
</svg>
