<svg width="208" height="51" viewBox="0 0 208 51" fill="none" xmlns="http://www.w3.org/2000/svg">
<g clip-path="url(#clip0_1803_188)">
<path d="M54.4688 13.5781H67.5156C69.1094 13.5781 70.4948 13.75 71.6719 14.0938C72.8594 14.4271 73.8438 14.8906 74.625 15.4844C75.4062 16.0781 75.9844 16.7865 76.3594 17.6094C76.7448 18.4219 76.9375 19.3021 76.9375 20.25C76.9375 21.8021 76.4479 23.1615 75.4688 24.3281C76.5938 24.9948 77.4323 25.8594 77.9844 26.9219C78.5365 27.9844 78.8125 29.1927 78.8125 30.5469C78.8125 31.6823 78.6198 32.7083 78.2344 33.625C77.8594 34.5417 77.2812 35.3281 76.5 35.9844C75.7292 36.6302 74.75 37.1302 73.5625 37.4844C72.3854 37.8281 70.9948 38 69.3906 38H54.4688V13.5781ZM69.4219 22.9531C69.849 22.9531 70.2656 22.9688 70.6719 23C71.3698 22.3333 71.7188 21.5729 71.7188 20.7188C71.7188 19.8333 71.3698 19.151 70.6719 18.6719C69.9844 18.1823 68.974 17.9375 67.6406 17.9375H59.4219V22.9531H69.4219ZM69.5156 33.6875C70.849 33.6875 71.8594 33.401 72.5469 32.8281C73.2448 32.2552 73.5938 31.4479 73.5938 30.4062C73.5938 29.3646 73.2448 28.5521 72.5469 27.9688C71.8594 27.3854 70.849 27.0938 69.5156 27.0938H59.4219V33.6875H69.5156ZM83.2188 13.5781H88.2031V38H83.2188V13.5781ZM93.0469 25.6406C93.0469 23.901 93.375 22.2812 94.0312 20.7812C94.6875 19.2708 95.6354 17.9635 96.875 16.8594C98.125 15.7448 99.6458 14.8698 101.438 14.2344C103.24 13.599 105.276 13.2812 107.547 13.2812C109.536 13.2812 111.359 13.4844 113.016 13.8906C114.682 14.2865 116.229 14.8958 117.656 15.7188L115.375 19.4688C114.948 19.1875 114.453 18.9375 113.891 18.7188C113.339 18.5 112.745 18.3177 112.109 18.1719C111.484 18.0156 110.833 17.8958 110.156 17.8125C109.49 17.7292 108.828 17.6875 108.172 17.6875C106.589 17.6875 105.177 17.8854 103.938 18.2812C102.698 18.6667 101.651 19.2135 100.797 19.9219C99.9531 20.6198 99.3073 21.4583 98.8594 22.4375C98.4219 23.4062 98.2031 24.474 98.2031 25.6406C98.2031 26.849 98.4323 27.9583 98.8906 28.9688C99.349 29.9792 100.01 30.8542 100.875 31.5938C101.75 32.3229 102.812 32.8958 104.062 33.3125C105.323 33.7188 106.745 33.9219 108.328 33.9219C109.047 33.9219 109.76 33.8698 110.469 33.7656C111.177 33.6615 111.859 33.5208 112.516 33.3438C113.182 33.1562 113.823 32.9375 114.438 32.6875C115.052 32.4271 115.625 32.1458 116.156 31.8438L118.438 35.5938C117.104 36.4479 115.562 37.1198 113.812 37.6094C112.062 38.0885 110.203 38.3281 108.234 38.3281C105.724 38.3281 103.521 38.0052 101.625 37.3594C99.7292 36.7031 98.1458 35.8073 96.875 34.6719C95.6042 33.526 94.6458 32.1823 94 30.6406C93.3646 29.0885 93.0469 27.4219 93.0469 25.6406ZM123.906 13.5781H144.703V17.9219H128.859V22.7969H142.891V26.875H128.859V33.6719H145.031V38H123.906V13.5781ZM150.531 13.5781H163.406C165.281 13.5781 166.906 13.7812 168.281 14.1875C169.656 14.5938 170.797 15.1823 171.703 15.9531C172.609 16.7135 173.281 17.6458 173.719 18.75C174.167 19.8542 174.391 21.099 174.391 22.4844C174.391 23.7865 174.172 24.9896 173.734 26.0938C173.297 27.1979 172.625 28.1562 171.719 28.9688C170.823 29.7708 169.688 30.401 168.312 30.8594C166.938 31.3073 165.312 31.5312 163.438 31.5312L155.484 31.5156V38H150.531V13.5781ZM163.531 27.2344C164.469 27.2344 165.286 27.125 165.984 26.9062C166.693 26.6771 167.281 26.3594 167.75 25.9531C168.229 25.5365 168.583 25.0365 168.812 24.4531C169.052 23.8594 169.172 23.2031 169.172 22.4844C169.172 21.0365 168.698 19.9115 167.75 19.1094C166.812 18.2969 165.406 17.8906 163.531 17.8906H155.484V27.2344H163.531ZM180.953 30.7344C181.839 31.2344 182.734 31.6875 183.641 32.0938C184.557 32.4896 185.505 32.8281 186.484 33.1094C187.464 33.3802 188.49 33.5885 189.562 33.7344C190.646 33.8802 191.797 33.9531 193.016 33.9531C194.484 33.9531 195.734 33.8594 196.766 33.6719C197.797 33.474 198.635 33.2083 199.281 32.875C199.938 32.5312 200.411 32.125 200.703 31.6562C201.005 31.1875 201.156 30.6771 201.156 30.125C201.156 29.2396 200.786 28.5417 200.047 28.0312C199.307 27.5104 198.167 27.25 196.625 27.25C195.948 27.25 195.234 27.2969 194.484 27.3906C193.734 27.474 192.974 27.5677 192.203 27.6719C191.443 27.776 190.688 27.875 189.938 27.9688C189.198 28.0521 188.5 28.0938 187.844 28.0938C186.75 28.0938 185.698 27.9531 184.688 27.6719C183.688 27.3906 182.797 26.9688 182.016 26.4062C181.245 25.8438 180.63 25.1406 180.172 24.2969C179.714 23.4531 179.484 22.4688 179.484 21.3438C179.484 20.6771 179.573 20.0156 179.75 19.3594C179.938 18.7031 180.229 18.0781 180.625 17.4844C181.031 16.8802 181.552 16.3229 182.188 15.8125C182.823 15.2917 183.589 14.8438 184.484 14.4688C185.391 14.0938 186.432 13.8021 187.609 13.5938C188.797 13.375 190.146 13.2656 191.656 13.2656C192.75 13.2656 193.849 13.3281 194.953 13.4531C196.057 13.5677 197.13 13.7344 198.172 13.9531C199.224 14.1719 200.234 14.4375 201.203 14.75C202.172 15.0521 203.073 15.3906 203.906 15.7656L201.734 19.7656C201.047 19.4635 200.307 19.1875 199.516 18.9375C198.724 18.6771 197.896 18.4531 197.031 18.2656C196.167 18.0781 195.271 17.9323 194.344 17.8281C193.427 17.7135 192.49 17.6562 191.531 17.6562C190.167 17.6562 189.042 17.7552 188.156 17.9531C187.281 18.151 186.583 18.4062 186.062 18.7188C185.542 19.0208 185.177 19.3646 184.969 19.75C184.771 20.125 184.672 20.5 184.672 20.875C184.672 21.6042 185 22.2031 185.656 22.6719C186.312 23.1302 187.312 23.3594 188.656 23.3594C189.198 23.3594 189.818 23.3229 190.516 23.25C191.224 23.1667 191.964 23.0781 192.734 22.9844C193.516 22.8906 194.307 22.8073 195.109 22.7344C195.922 22.651 196.708 22.6094 197.469 22.6094C198.906 22.6094 200.177 22.7708 201.281 23.0938C202.396 23.4167 203.328 23.8802 204.078 24.4844C204.828 25.0781 205.396 25.8021 205.781 26.6562C206.167 27.5 206.359 28.4479 206.359 29.5C206.359 30.9062 206.031 32.1615 205.375 33.2656C204.729 34.3594 203.802 35.2865 202.594 36.0469C201.396 36.7969 199.948 37.3698 198.25 37.7656C196.552 38.151 194.661 38.3438 192.578 38.3438C191.203 38.3438 189.859 38.2552 188.547 38.0781C187.234 37.9115 185.974 37.6719 184.766 37.3594C183.568 37.0365 182.422 36.6562 181.328 36.2188C180.245 35.7708 179.24 35.2812 178.312 34.75L180.953 30.7344Z" fill="#5F1FB2"/>
<rect x="6" y="7" width="36" height="36" rx="5" fill="#5F1FB2"/>
<path d="M38 28.7704C38 31.7322 34.25 34.6939 31.25 33.9535C29.5026 36.2934 18.6671 36.7439 17 34.6939C15.4319 35.3596 13.1038 35.0973 12.0883 34.1249C11.3208 33.3895 10.9372 31.9743 11.0084 30.131C11.1784 25.8653 16.1775 20.3105 18.5949 16.7952C18.9019 16.3469 18.562 15.7341 18.5949 15.2758C18.6771 14.1729 19.061 12.9994 19.4666 12.2792C20.0203 11.3022 20.8204 11 21.4179 11C21.9715 11 22.58 11.1612 23.2817 11.4986C25.2603 12.5311 25.2603 13.7901 24.8659 14.7923C24.5096 15.432 23.6873 16.3234 22.8267 17.0033C22.2402 17.4666 21.8367 17.4718 21.5 18.4044C20.4089 21.4261 17.9207 24.4883 17.8594 27.4819C17.8539 27.6582 18.0793 28.0218 18.1505 28.0872C18.6715 28.1775 19.0057 28.0228 19.2305 27.8918C20.6419 26.7195 22.0329 25.1603 23.8976 24.8872C30.5276 23.9164 31.6356 28.4749 32.3213 28.5549C33.2698 27.578 30.2516 23.9125 26.7148 23.8987C28.2406 23.139 31.3767 22.6573 32.5373 22.7696C36.9838 23.2 38 25.0683 38 28.7704Z" fill="white"/>
</g>
<defs>
<clipPath id="clip0_1803_188">
<rect width="208" height="51" fill="white"/>
</clipPath>
</defs>
</svg>
