<svg width="36" height="36" viewBox="0 0 36 36" fill="none" xmlns="http://www.w3.org/2000/svg">
<g clip-path="url(#clip0_1804_193)">
<rect width="36" height="36" rx="5" fill="#2182D9"/>
<path d="M32 21.7704C32 24.7322 28.25 27.6939 25.25 26.9535C23.5026 29.2934 12.6671 29.7439 11 27.6939C9.43189 28.3596 7.10382 28.0973 6.08832 27.1249C5.32085 26.3895 4.93718 24.9743 5.0084 23.131C5.17837 18.8653 10.1775 13.3105 12.5949 9.79517C12.9019 9.34694 12.562 8.73413 12.5949 8.27583C12.6771 7.17288 12.5 5.5 13.4666 5.27924C14.0203 4.3022 14.8204 4 15.4179 4C15.9715 4 16.58 4.16116 17.2817 4.49859C19.2603 5.53106 19.2603 6.79014 18.8659 7.79234C18.5096 8.43195 17.6873 9.32338 16.8267 10.0033C16.2402 10.4666 15.8367 10.4718 15.5 11.4044C14.4089 14.4261 11.9207 17.4883 11.8594 20.4819C11.8539 20.6582 12.0793 21.0218 12.1505 21.0872C12.6715 21.1775 13.0057 21.0228 13.2305 20.8918C14.6419 19.7195 16.0329 18.1603 17.8976 17.8872C24.5276 16.9164 25.6356 21.4749 26.3213 21.5549C27.2698 20.578 24.2516 16.9125 20.7148 16.8987C22.2406 16.139 25.3767 15.6573 26.5373 15.7696C30.9838 16.2 32 18.0683 32 21.7704Z" fill="white"/>
</g>
<defs>
<clipPath id="clip0_1804_193">
<rect width="36" height="36" fill="white"/>
</clipPath>
</defs>
</svg>
